Coordinates
version=1
nRows=16
nColumns=22
inDegrees=yes

Units are S.I. units (second, meters, Newtons, ...)
If the header above contains a line with 'inDegrees', this indicates whether rotational values are in degrees (yes) or radians (no).

endheader
time	pelvis_tilt	pelvis_list	pelvis_rotation	pelvis_tx	pelvis_ty	pelvis_tz	hip_flexion_r	hip_adduction_r	hip_rotation_r	knee_angle_r	ankle_angle_r	subtalar_angle_r	hip_flexion_l	hip_adduction_l	hip_rotation_l	knee_angle_l	ankle_angle_l	subtalar_angle_l	lumbar_extension	lumbar_bending	lumbar_rotation
      3.41000000	      2.16052034	      1.64602428	    170.72315136	      0.18077677	      1.00075896	     -0.00647186	      1.81906010	      3.02728899	      3.28043790	    -32.27264675	     12.20812945	      9.57316776	     20.75352913	     -2.33212728	     -1.92765645	    -22.13243384	      7.82942852	      0.93369296	    -11.46402245	      1.15423673	      6.34463597
      3.42000000	      2.30357694	      1.53217468	    170.85506034	      0.18809050	      0.99973398	     -0.00781460	      1.62954992	      2.99199859	      2.62906231	    -30.99739140	     13.25803594	      9.10238865	     21.32473162	     -2.30307486	     -1.59758101	    -22.01919555	      7.65036178	      1.20354766	    -11.55901454	      0.99296649	      6.21425235
      3.43000000	      2.45378403	      1.46033782	    171.01104220	      0.19553945	      0.99873891	     -0.00918573	      1.50285143	      3.03780577	      1.99087764	    -29.79797123	     14.17887501	      8.21190525	     21.90609116	     -2.31868446	     -1.27069670	    -21.90326126	      7.45078242	      1.58190951	    -11.67803527	      0.87762191	      6.06923448
      3.44000000	      2.58328797	      1.39855719	    171.19475393	      0.20304666	      0.99779811	     -0.01049281	      1.42582293	      3.09980924	      1.32567409	    -28.70598600	     15.05445077	      7.36658181	     22.44760718	     -2.33055379	     -0.94313836	    -21.74961516	      7.36098224	      1.83092161	    -11.83633120	      0.77985817	      5.91005291
      3.45000000	      2.70572583	      1.35773597	    171.39695974	      0.21062056	      0.99692350	     -0.01176636	      1.40441893	      3.20230326	      0.70498683	    -27.70787063	     15.82122435	      6.48057890	     22.96449204	     -2.36058994	     -0.63874772	    -21.56447295	      7.33718763	      2.03127776	    -12.01781548	      0.70998206	      5.75103138
      3.46000000	      2.81896904	      1.33667672	    171.59538408	      0.21823723	      0.99611261	     -0.01303018	      1.43821201	      3.33909748	      0.16299959	    -26.81044102	     16.50351541	      5.56389741	     23.45069508	     -2.41814937	     -0.38626057	    -21.35198767	      7.41817832	      2.19573360	    -12.21669596	      0.66355093	      5.63274528
      3.47000000	      2.92675588	      1.32687840	    171.79718002	      0.22587850	      0.99537372	     -0.01426381	      1.52567026	      3.50078383	     -0.27878350	    -26.00660295	     17.07575863	      4.67716344	     23.90869993	     -2.49018174	     -0.17611183	    -21.10700740	      7.56812061	      2.32730746	    -12.42483830	      0.63281413	      5.53610747
      3.48000000	      3.02871004	      1.32724300	    171.98436913	      0.23350859	      0.99469373	     -0.01548640	      1.67205634	      3.67826868	     -0.61880517	    -25.31271441	     17.57363696	      3.82657604	     24.32805843	     -2.58569117	     -0.03820564	    -20.81937243	      7.81039861	      2.44110345	    -12.63411696	      0.61650217	      5.48177805
      3.49000000	      3.12080955	      1.33117665	    172.16559707	      0.24110649	      0.99406932	     -0.01667276	      1.86681024	      3.85659420	     -0.88307513	    -24.71922557	     17.99571877	      3.07990285	     24.72055741	     -2.69188291	      0.03835395	    -20.51887616	      8.12290739	      2.53988635	    -12.84413707	      0.60483158	      5.46709979
      3.50000000	      3.21649780	      1.33546763	    172.30359841	      0.24866445	      0.99349179	     -0.01791109	      2.13027269	      4.04424463	     -1.00540985	    -24.24234753	     18.37681399	      2.33135628	     25.07017697	     -2.82551274	      0.02776782	    -20.15518141	      8.44210127	      2.65376493	    -13.03585704	      0.59040798	      5.50393872
      3.51000000	      3.30195350	      1.34528194	    172.43450396	      0.25612795	      0.99295755	     -0.01911961	      2.43662682	      4.22672028	     -1.10626271	    -23.86737467	     18.71431306	      1.69368254	     25.39208088	     -2.97442694	     -0.06322717	    -19.78268907	      8.78362819	      2.76542534	    -13.21979616	      0.58360460	      5.56936216
      3.52000000	      3.38493435	      1.35570170	    172.54265504	      0.26347776	      0.99247718	     -0.02033230	      2.79090187	      4.40757565	     -1.14928110	    -23.59098791	     19.01343926	      1.11148198	     25.67167526	     -3.13719943	     -0.22103534	    -19.36484858	      9.09406082	      2.88876753	    -13.38371167	      0.57673012	      5.65567626
      3.53000000	      3.45839607	      1.37418565	    172.63668962	      0.27067274	      0.99205582	     -0.02153311	      3.17578935	      4.59069405	     -1.17544744	    -23.40197302	     19.27504312	      0.59935077	     25.91315575	     -3.31661131	     -0.45819612	    -18.92996690	      9.37102677	      3.01538502	    -13.53154966	      0.57978982	      5.74924574
      3.54000000	      3.52766129	      1.40077639	    172.71568159	      0.27768653	      0.99171339	     -0.02268900	      3.58829612	      4.77260392	     -1.20853847	    -23.28357205	     19.47434192	      0.11869539	     26.12141493	     -3.50860746	     -0.77049524	    -18.48664447	      9.57805848	      3.15520924	    -13.65609493	      0.59826561	      5.85821554
      3.55000000	      3.58168983	      1.43794411	    172.78297414	      0.28449628	      0.99148009	     -0.02379324	      4.01136982	      4.95440535	     -1.25875771	    -23.23120181	     19.62271237	     -0.29809588	     26.29352903	     -3.71160856	     -1.16790316	    -18.06366878	      9.71746176	      3.29363008	    -13.76810946	      0.63253471	      5.96632994
      3.56000000	      3.62067875	      1.48072854	    172.83677385	      0.29107944	      0.99137435	     -0.02484548	      4.43758223	      5.13033059	     -1.32816380	    -23.23070453	     19.71363677	     -0.64730828	     26.43645307	     -3.92083681	     -1.66125495	    -17.69139884	      9.77879805	      3.42342088	    -13.86371037	      0.67643888	      6.06507838
